name processed_emg_signals
nRows=7
nColumns=35
 
endheader
time	FP1_FX	FP1_FY	FP1_FZ	FP1_MX	FP1_MY	FP1_MZ	FP2_FX12	FP2_FX34	FP2_FY14	FP2_FY23	FP2_FZ1	FP2_FZ2	FP2_FZ3	FP2_FZ4	FP3_FX12	FP3_FX34	FP3_FY14	FP3_FY23	FP3_FZ1	FP3_FZ2	FP3_FZ3	FP3_FZ4	LGLTMED	LRF	LADDLONG	LST	LTA	LGM	RGLTMED	RRF	RADDLONG	RST	RTA	RGM
0.0027879999999999	-0.3624017117545008	-0.2708475803956389	-0.2861066022887826	-0.3776607336476445	-0.1106278505176305	-0.0877393176779151	-1.1933334248779204	-0.4499452037567408	-3.000809781426028	0.4511024682614106	0.1986858027524363	-0.83447721864502	-0.5960549829379147	0.2781598813214714	0.3111972249831751	-0.6016470397217688	-3.417589739980116	-1.2220470373213033	0.0391363281570988	-0.3522209818663668	2.3090087262932	-0.2739495198616737	-0.0050354795530438	-0.0236514862626791	-0.0172426961362361	0.0624093972146511	-0.009308005683124	0.0221255794167518	-0.0169375166296958	-0.0105287274345755	-0.0062562013044953	0.0090028205886483	-0.0096131861209869	0.0041199335828423
0.0037879999999999	-0.3318836679682135	-0.2174410037696361	-0.2708475803956389	-0.3318836679682135	-0.0724802957847714	-0.1106278505176305	-0.802076466393089	-0.3716938120597746	-2.883130835024872	0.2549710904382607	0.9934265884427872	-0.5165809043688796	0.2781598813214714	0.3576339598905065	0.4356759883520311	-0.1867178284922488	-3.2933138643609823	-1.4705990413958858	0.2739507141711783	-0.5870353678804463	2.3090087262932	-0.5870353678804463	-0.0001525925472378	0.0218203999102115	-0.0166323371231555	-0.0013733142986893	-0.0056458404287695	0.004730294458568	-0.017853058874607	-0.0187685992568731	-0.0065613817423582	-0.0196841396391391	-0.0086976448073983	0.0135805271565914
0.0047879999999999	-0.3318836679682135	-0.2708475803956389	-0.3395131789147854	-0.3624017117545008	-0.1029983395710587	-0.1869229599833488	-1.6237160792112348	-0.4499452037567408	-2.569320630507832	0.0980659881797407	1.470271059856998	-0.7550031400759849	0.1986858027524363	0.9934265884427872	0.1867184616143191	-0.3111965918611048	-3.459015200410704	-1.677725711458038	0.2739507141711783	-0.2739495198616737	2.4655516503025865	-0.5087639058757532	0.0318913534283638	-0.0312809981405735	0.004730294458568	0.0148012489080429	0.0065613770857453	0.0022888509556651	-0.0233463048934936	-0.0395208671689033	-0.0053406599909067	0.0038147531449794	0.0233463011682033	0.0105287227779626
0.005787999999999901	-0.2708475803956389	-0.2555885585024953	-0.2784770913422107	-0.3776607336476445	-0.0114442082121968	-0.1258868724107742	-1.388961904120336	-0.3716938120597746	-2.098605323732272	0.0980659881797407	0.755004352735682	-0.4371068257998445	-0.5165809043688796	0.5165821170285767	0.4356759883520311	-0.1867178284922488	-3.583291076029837	-1.4705990413958858	0.6653080241946441	-0.43049244387106	2.54382311230728	-0.2739495198616737	-0.0129701709374785	0.0129701662808656	-0.0022888556122779	-0.0022888556122779	-0.0157167948782444	0.0132753467187285	-0.0187685992568731	-0.0520332679152488	-0.0074769230559468	-0.0090028252452611	0.0602731332182884	0.0032043922692537
0.006787999999999901	-0.2632180694490671	-0.179293449036777	-0.2937361132353544	-0.3318836679682135	-0.0267032301053404	-0.1487754052504897	-1.2715848165748866	-0.7238250746961228	-2.3339632165345847	-0.1765179407726691	0.9934265884427872	-0.3576327472308094	0.4371080384595416	0.4371080384595416	0.4356759883520311	-0.3526895129840568	-3.376164279549528	-1.6363003774456075	0.117407790161792	-0.6653068298851395	2.152465802283814	-0.3522209818663668	0.0041199335828423	-0.0160219743847847	-0.0245670266449451	0.0169375129044055	-0.0047302991151809	-0.0257877483963966	-0.0096131861209869	-0.0059510208666324	-0.0013733142986893	0.0025940313935279	0.0358586981892585	0.0044251140207052
0.007787999999999901	-0.3242541570216417	-0.2784770913422107	-0.3624017117545008	-0.3929197788238525	-0.1258868724107742	-0.0801098067313432	-1.115082033180954	-0.2543167245143252	-2.255510425990792	-0.411875594160449	1.470271059856998	-0.2781586686617743	0.1986858027524363	-0.039736432954669	0.4356759883520311	-0.2282107496152008	-3.0861870678806724	-1.4291737073834554	0.5087651001852578	-0.1174065958522874	2.54382311230728	0.0391363281570988	0.0294499099254608	-0.0560006126761436	-0.0209048613905906	0.0148012489080429	-0.0138857122510671	0.0074769183993339	-0.0196841396391391	-0.0233463048934936	-0.0120546296238899	-0.0041199382394552	-0.0135805318132042	0.0065613770857453
0.008787999999999902	-0.3013656241819262	-0.2250705147162079	-0.3242541570216417	-0.3166246460750699	-0.0267032301053404	-0.1411458943039178	-1.075956337332471	-0.802076466393089	-2.2947368212626884	-0.0588391140787791	0.5165821170285767	-1.3907957686282657	-0.5165809043688796	-0.5960549829379147	0.4771689094749831	-0.1867178284922488	-3.459015200410704	-1.4291737073834554	0.3522221761758715	-0.2739495198616737	2.230737264288507	-0.1956780578569805	-0.034332800656557	-0.011749449186027	-0.0196841396391391	0.0035095727071166	-0.041657131165266	0.0083924597129225	-0.0157167948782444	-0.0199893210083246	0.0044251140207052	0.0004577683284878	-0.050507366657257	0.0166323315352201
